<svg width="35" height="35" viewBox="0 0 35 35" fill="none" xmlns="http://www.w3.org/2000/svg">
<rect width="35" height="35" rx="5" fill="#EE312E"/>
<path d="M17.4757 11.1606L26.2013 26.2735H23.7581L17.4657 15.4686L11.243 26.2735H8.75L17.4757 11.1606Z" fill="#F5F5F5"/>
<path d="M17.4757 23.2421C15.9748 23.2421 14.494 22.8532 13.1976 22.1202C10.4552 20.5745 8.75 17.6627 8.75 14.5164C8.75 9.70485 12.6641 5.79077 17.4757 5.79077C22.2872 5.79077 26.2013 9.70485 26.2013 14.5164C26.2013 17.7624 24.4163 20.7191 21.5493 22.2349C20.3028 22.8931 18.8967 23.2421 17.4757 23.2421ZM17.4757 7.96471C13.8607 7.96471 10.9239 10.9065 10.9239 14.5164C10.9239 16.8798 12.2054 19.0687 14.2646 20.2305C15.2419 20.779 16.3488 21.0682 17.4757 21.0682C18.5427 21.0682 19.5997 20.8089 20.5321 20.3153C22.6861 19.1734 24.0274 16.9546 24.0274 14.5164C24.0274 10.9015 21.0856 7.96471 17.4757 7.96471Z" fill="#F5F5F5"/>
<path d="M9.97658 27.231H24.9498L26.2013 29.3999H8.75L9.97658 27.231Z" fill="#F5F5F5"/>
</svg>
